<?xml version="1.0" encoding="UTF-8" standalone="no"?>
<svg
   xmlns:dc="http://purl.org/dc/elements/1.1/"
   xmlns:cc="http://creativecommons.org/ns#"
   xmlns:rdf="http://www.w3.org/1999/02/22-rdf-syntax-ns#"
   xmlns:svg="http://www.w3.org/2000/svg"
   xmlns="http://www.w3.org/2000/svg"
   id="svg8"
   version="1.1"
   viewBox="0 0 210 297"
   height="297mm"
   width="210mm">
  <defs
     id="defs2" />
  <metadata
     id="metadata5">
    <rdf:RDF>
      <cc:Work
         rdf:about="">
        <dc:format>image/svg+xml</dc:format>
        <dc:type
           rdf:resource="http://purl.org/dc/dcmitype/StillImage" />
        <dc:title></dc:title>
      </cc:Work>
    </rdf:RDF>
  </metadata>
  <g
     id="layer1">
    <path
       style="fill:#6f8a91;stroke:#6f8a91;stroke-width:0.348136;stroke-opacity:0"
       d="M 80.538159,173.59643 C 66.151668,172.48056 51.579328,165.7299 40.745387,155.16238 22.645178,137.5073 15.975777,112.02108 23.208007,88.145601 31.240957,61.626769 53.618916,41.85726 81.344699,36.785517 c 6.179569,-1.130398 17.9729,-1.129509 24.306241,0.0019 19.13305,3.417785 35.93771,13.39422 48.45644,28.767178 7.65,9.394147 13.91693,22.460098 16.2251,33.827767 l 0.7884,3.882828 -1.49759,16.92028 c -1.47954,16.71637 -8.62106,17.17375 -10.02251,19.31262 -0.52767,0.80533 -0.57016,0.81381 -0.92256,0.1841 -0.22675,-0.40517 -0.46979,-5.5015 -0.62931,-13.19577 -0.36029,-17.3774 -0.51788,-19.96732 -1.49792,-24.61713 -4.95471,-23.507769 -21.7108,-42.74237 -43.4336,-49.858236 -7.1068,-2.328015 -10.56036,-2.815985 -19.781102,-2.794971 -9.06794,0.02066 -11.332969,0.320752 -18.25271,2.418221 -9.861079,2.989026 -18.903072,8.388137 -25.960559,15.501449 -9.676192,9.752708 -15.745542,22.88713 -16.645952,36.022777 -1.15164,16.80054 4.70241,32.8688 16.107929,44.21326 7.139591,7.10134 14.213713,11.22194 24.037203,14.00138 2.83228,0.80134 3.903229,0.90221 11.149989,1.05007 6.50331,0.1327 8.595902,0.0551 11.084401,-0.41125 6.265901,-1.17412 13.537061,-4.16789 19.193791,-7.90271 3.66168,-2.4176 10.65672,-9.40694 13.01452,-13.00394 3.38445,-5.16319 5.59403,-10.46671 6.88952,-16.53643 0.88418,-4.14264 0.88418,-13.61231 0,-17.75495 -1.30722,-6.12468 -3.74842,-11.998028 -6.90615,-16.615658 -2.64555,-3.86865 -8.89257,-9.948431 -12.53909,-12.203409 -6.51427,-4.028361 -13.34722,-5.971 -21.060672,-5.987651 -11.12452,-0.024 -21.387358,4.286089 -28.65937,12.036129 -3.948269,4.207812 -6.86117,9.409692 -8.364601,14.937521 -1.0737,3.947828 -1.314238,10.777988 -0.526899,14.961288 2.258279,11.99868 11.12253,22.03752 22.033992,24.95366 3.511989,0.93859 10.618658,1.03055 14.096,0.18238 11.40991,-2.78302 19.10929,-11.60159 19.65888,-22.51644 0.43273,-8.59429 -3.7585,-16.20093 -11.03937,-20.035317 l -2.611011,-1.375061 h -4.699841 c -4.60098,0 -4.751988,0.02439 -7.179318,1.162471 -7.48293,3.508248 -10.367592,12.143367 -6.048441,18.105777 1.365951,1.88565 2.808801,2.74794 5.07097,3.03058 2.266701,0.28321 3.998769,-0.45733 5.247899,-2.24372 l 0.878081,-1.25576 -0.237239,1.21849 c -0.34499,1.7718 -1.036532,2.68073 -2.675821,3.51704 -5.16658,2.6358 -11.927721,-2.13418 -13.191059,-9.30629 -0.78777,-4.47226 1.009298,-9.15814 5.0521,-13.173297 3.851418,-3.8251 7.834688,-5.407012 13.61499,-5.407012 5.85611,0 10.77892,2.207541 15.48209,6.942651 5.90319,5.943268 8.01068,11.515478 7.52133,19.886428 -0.26465,4.5273 -0.84903,6.84571 -2.60434,10.33224 -4.34059,8.62164 -11.90289,14.73796 -21.45345,17.3514 -3.759441,1.02874 -12.562591,0.95324 -16.362392,-0.14034 -18.11274,-5.21285 -30.224351,-22.7785 -28.38587,-41.16849 0.856869,-8.571069 3.3553,-15.118387 8.32876,-21.826088 6.518241,-8.791141 15.73579,-14.896672 26.681462,-17.673265 6.199539,-1.572643 15.490759,-1.487135 21.9228,0.201756 14.41051,3.78383 26.75571,13.750909 33.55832,27.093799 3.7027,7.262619 5.40249,13.397778 5.79952,20.932498 1.20924,22.94865 -11.9161,44.5494 -33.39459,54.95841 -9.56666,4.63624 -20.194382,6.69927 -30.423931,5.90582 z"
       id="path871" />
  </g>
</svg>
